<?xml version="1.0" standalone="no"?>
<!DOCTYPE svg PUBLIC "-//W3C//DTD SVG 20010904//EN"
 "http://www.w3.org/TR/2001/REC-SVG-20010904/DTD/svg10.dtd">
<svg version="1.0" xmlns="http://www.w3.org/2000/svg"
 width="261.000000pt" height="174.000000pt" viewBox="0 0 261.000000 174.000000"
 preserveAspectRatio="xMidYMid meet">

<g transform="translate(0.000000,174.000000) scale(0.100000,-0.100000)"
fill="#000000" stroke="none">
<path d="M2121 1468 c-1 -19 -26 -24 -36 -8 -8 14 -65 13 -65 -1 0 -7 -12 -10
-30 -7 -28 4 -29 4 -13 -14 15 -17 15 -18 -3 -20 -10 0 -30 0 -44 1 -24 2 -25
2 -5 -13 17 -14 18 -17 5 -26 -8 -5 -25 -10 -37 -10 -12 0 -25 -5 -28 -10 -4
-6 -13 -9 -22 -8 -8 2 -20 -6 -26 -17 -36 -64 -38 -66 -51 -56 -10 8 -17 7
-27 -5 -7 -9 -22 -14 -36 -11 -18 3 -23 0 -23 -15 0 -13 -5 -18 -14 -15 -7 3
-19 0 -26 -6 -10 -9 -14 -9 -17 1 -6 17 -23 15 -23 -3 0 -8 -4 -15 -10 -15 -5
0 -10 4 -10 9 0 5 -9 11 -19 14 -13 3 -18 0 -15 -7 3 -7 -4 -20 -15 -31 -17
-15 -23 -16 -36 -5 -13 11 -19 8 -39 -13 -16 -17 -26 -22 -29 -14 -3 9 -7 9
-19 0 -8 -7 -18 -10 -21 -6 -4 3 -7 -1 -7 -10 0 -9 -5 -17 -11 -17 -7 0 -9
-12 -5 -36 7 -33 6 -35 -13 -25 -25 14 -31 14 -31 1 0 -6 11 -15 25 -20 26
-10 34 -30 13 -30 -9 0 -9 -3 0 -12 16 -16 15 -28 -2 -28 -20 0 -29 -30 -11
-36 8 -4 15 -17 15 -30 0 -31 -24 -40 -109 -43 -71 -2 -85 -7 -55 -17 10 -4
26 -16 36 -27 19 -25 10 -58 -29 -99 -22 -23 -29 -25 -57 -16 -17 5 -45 17
-62 25 -25 13 -34 14 -45 4 -8 -6 -39 -29 -69 -51 -30 -22 -61 -44 -67 -50 -9
-8 -13 -8 -13 0 0 6 -13 23 -30 38 -30 27 -30 28 -16 72 18 61 45 78 146 91
47 5 88 14 93 18 4 4 -47 8 -114 10 -67 1 -125 3 -128 5 -3 2 -64 7 -136 11
-71 3 -160 8 -197 11 -37 2 -69 0 -73 -5 -3 -5 -18 -9 -33 -9 -42 1 -66 -10
-79 -37 -10 -22 -9 -25 7 -25 11 0 21 4 25 10 8 12 35 1 35 -14 0 -14 -41 -36
-65 -36 -9 0 -12 6 -8 16 5 14 3 15 -15 5 -18 -10 -22 -9 -22 4 0 19 0 19 -38
-1 -38 -18 -41 -34 -8 -34 23 0 36 -16 36 -45 0 -9 -8 -11 -22 -7 -20 5 -21 3
-11 -10 10 -11 10 -17 1 -26 -9 -9 -8 -12 5 -12 9 0 17 4 17 10 0 6 10 5 25
-2 14 -6 25 -19 25 -29 0 -22 22 -30 35 -13 14 19 55 6 55 -17 0 -12 -5 -16
-15 -13 -8 4 -15 2 -15 -4 0 -6 6 -13 13 -15 6 -3 2 -6 -9 -6 -31 -1 -86 24
-106 48 -10 12 -23 21 -30 21 -10 0 -9 -3 1 -9 11 -7 11 -9 0 -13 -22 -7 -39
17 -39 54 0 19 -6 40 -12 47 -11 11 -11 14 0 18 16 6 16 24 0 22 -7 -1 -25 3
-40 9 -20 8 -26 16 -21 28 12 31 -19 33 -49 3 -16 -16 -34 -29 -39 -29 -5 0
-9 -4 -9 -9 0 -5 18 -8 41 -7 32 0 45 -5 60 -23 14 -18 19 -19 19 -7 0 22 17
20 22 -2 7 -26 -20 -48 -41 -34 -23 17 -63 33 -68 28 -7 -6 86 -96 99 -96 5 0
33 -11 61 -24 132 -60 171 -76 190 -76 11 0 38 -5 61 -11 110 -29 153 -42 181
-54 47 -20 124 -28 141 -14 11 9 14 9 14 -1 0 -8 8 -10 24 -6 13 3 26 1 28 -4
2 -6 28 -13 58 -15 30 -2 55 -5 55 -6 0 -1 70 -9 110 -12 17 -1 32 -5 35 -8 3
-4 15 -9 28 -13 16 -6 22 -3 22 8 0 9 5 16 10 16 6 0 10 -4 10 -10 0 -6 15 -8
34 -4 19 3 37 0 40 -5 4 -6 14 -7 22 -4 13 5 15 1 9 -16 -6 -20 -5 -21 14 -9
12 7 21 19 21 26 0 9 5 10 16 4 9 -5 25 -7 35 -5 14 4 19 0 19 -16 0 -11 -4
-21 -10 -21 -5 0 -10 -6 -10 -14 0 -9 -7 -12 -20 -9 -14 4 -20 0 -20 -11 0
-21 -16 -21 -28 0 -8 15 -12 15 -28 3 -11 -8 -19 -20 -19 -28 0 -8 -6 -16 -14
-19 -9 -3 -11 0 -6 8 6 9 2 10 -16 4 -13 -5 -41 -8 -61 -7 -21 2 -38 -1 -38
-6 0 -4 -10 -6 -22 -4 -31 5 -49 -32 -32 -66 10 -19 10 -27 -1 -38 -20 -19
-27 -16 -15 6 17 32 12 47 -8 25 -11 -11 -22 -26 -25 -34 -4 -11 -6 -11 -6 -2
-1 7 -5 10 -11 7 -5 -3 -10 1 -10 10 0 23 -23 14 -35 -13 -11 -25 -14 -26 -35
-11 -11 8 -12 12 -2 16 6 2 12 12 12 21 0 12 -5 10 -25 -8 -14 -13 -25 -29
-25 -37 0 -17 -5 -16 -33 1 -23 16 -43 16 -66 2 -7 -5 -16 -4 -20 1 -6 11 -38
9 -49 -2 -12 -12 21 -23 121 -39 238 -38 491 -45 737 -21 375 36 633 111 747
218 28 26 30 31 17 45 -17 16 -14 34 6 40 9 3 11 -1 7 -11 -3 -9 -2 -19 3 -22
6 -4 10 5 10 20 0 30 -24 43 -45 25 -8 -7 -15 -8 -15 -3 0 5 -11 15 -25 21
-34 16 -38 15 -31 -3 3 -8 1 -15 -4 -15 -6 0 -10 7 -10 15 0 12 -4 13 -19 6
-10 -6 -21 -7 -25 -4 -3 3 -6 -4 -6 -17 0 -22 -1 -22 -19 -6 -10 10 -21 13
-22 7 -2 -5 -24 -7 -51 -4 -38 4 -48 9 -48 24 0 12 7 19 19 19 10 0 24 6 30
14 7 8 20 15 29 15 40 1 102 20 102 32 0 10 82 49 102 49 7 0 30 9 51 20 20
11 46 20 56 20 22 0 35 28 25 54 -3 9 -2 16 4 16 6 0 12 -6 15 -12 4 -10 7
-10 18 0 12 11 12 14 0 22 -12 7 -12 12 1 32 12 18 13 29 6 42 -6 10 -8 31 -6
48 4 25 1 31 -21 39 -14 5 -35 14 -45 20 -17 10 -23 7 -40 -12 -33 -38 -73
-51 -161 -50 -99 2 -118 5 -123 20 -7 22 -80 51 -131 51 -46 0 -81 18 -53 28
7 2 12 8 12 13 0 5 -8 4 -19 -2 -16 -10 -17 -17 -8 -51 5 -21 8 -40 6 -42 -2
-2 -24 -7 -48 -11 -43 -7 -44 -7 -97 51 -30 32 -54 64 -54 72 0 12 3 12 15 2
13 -11 20 -9 38 9 13 11 33 21 45 21 11 0 24 5 27 10 3 6 17 10 31 10 13 0 24
5 24 11 0 8 5 7 15 -1 13 -11 20 -9 43 11 14 13 31 30 37 37 6 8 20 12 30 10
15 -2 22 5 29 35 6 25 14 36 23 33 16 -6 16 -1 3 25 -9 15 -7 19 6 19 9 0 14
6 11 13 -3 8 -1 20 4 28 7 12 9 11 9 -2 0 -10 8 -15 23 -14 17 1 22 8 23 31 1
16 -2 34 -7 40 -10 12 0 54 13 54 5 0 8 -8 6 -17 -3 -15 5 -18 45 -18 29 1 52
6 57 14 4 8 13 10 19 6 20 -12 6 64 -14 79 -10 7 -15 18 -11 24 12 19 -57 54
-105 54 -9 0 -21 9 -27 21 -9 18 -11 19 -11 5z m-1551 -609 c-12 -21 -25 -25
-35 -9 -9 15 1 25 24 27 18 2 19 -1 11 -18z m115 -47 c0 -18 -20 -15 -23 4 -3
10 1 15 10 12 7 -3 13 -10 13 -16z m670 8 c3 -5 1 -10 -4 -10 -6 0 -11 5 -11
10 0 6 2 10 4 10 3 0 8 -4 11 -10z m683 -17 c-16 -2 -40 -2 -55 0 -16 2 -3 4
27 4 30 0 43 -2 28 -4z m59 1 c-3 -3 -12 -4 -19 -1 -8 3 -5 6 6 6 11 1 17 -2
13 -5z m-1486 -27 c15 -12 30 -32 33 -44 6 -18 0 -27 -34 -48 -23 -14 -52 -30
-65 -35 -14 -5 -22 -15 -20 -22 3 -8 -1 -22 -9 -33 -15 -20 -15 -20 -30 0 -8
11 -16 26 -16 33 0 8 -7 11 -19 7 -13 -4 -20 0 -24 15 -6 25 9 36 29 19 11 -9
18 -9 26 -1 8 8 7 13 -5 18 -9 3 -14 10 -11 15 3 6 1 16 -6 24 -9 11 -7 16 7
24 10 5 34 19 53 30 45 25 59 25 91 -2z m679 -5 c0 -24 -26 -59 -36 -49 -4 4
-2 13 4 19 7 7 12 20 12 30 0 10 5 18 10 18 6 0 10 -8 10 -18z m520 14 c0 -2
-7 -7 -16 -10 -8 -3 -12 -2 -9 4 6 10 25 14 25 6z m666 -43 c-11 -11 -17 4 -9
23 7 18 8 18 11 1 2 -10 1 -21 -2 -24z m-62 -55 c-2 -80 -2 -78 -15 -78 -7 0
-9 10 -7 25 6 30 -8 34 -17 5 -4 -11 -11 -17 -17 -14 -8 5 -9 1 -5 -11 6 -14
3 -16 -13 -12 -11 3 -23 1 -26 -4 -11 -18 -21 1 -21 42 0 22 3 35 7 29 11 -18
52 -2 48 18 -3 20 9 42 23 42 5 0 10 -10 10 -22 1 -20 2 -20 6 -4 4 15 16 34
28 46 1 0 0 -28 -1 -62z m-797 35 c49 -5 51 -7 58 -40 5 -29 2 -37 -22 -56
-15 -12 -31 -22 -35 -21 -5 1 -37 2 -73 3 l-65 1 0 37 c0 43 44 98 70 87 8 -4
38 -9 67 -11z m843 -22 c0 -5 -7 -11 -14 -14 -10 -4 -13 -1 -9 9 6 15 23 19
23 5z m-130 -17 c0 -8 -5 -12 -10 -9 -6 4 -8 11 -5 16 9 14 15 11 15 -7z
m-1620 -4 c0 -5 -4 -10 -9 -10 -5 0 -7 -9 -4 -20 5 -20 -11 -28 -22 -10 -10
16 -37 -1 -32 -21 3 -12 0 -19 -9 -19 -8 0 -14 8 -14 17 0 23 29 53 46 46 8
-3 17 2 20 11 7 18 24 22 24 6z m-540 -10 c0 -5 -2 -10 -4 -10 -3 0 -8 5 -11
10 -3 6 -1 10 4 10 6 0 11 -4 11 -10z m600 1 c0 -5 -6 -11 -12 -14 -10 -3 -10
-7 0 -19 11 -14 9 -19 -14 -37 -24 -19 -29 -20 -36 -7 -12 21 29 85 55 86 4 0
7 -4 7 -9z m1440 -21 c0 -5 -2 -10 -4 -10 -3 0 -8 5 -11 10 -3 6 -1 10 4 10 6
0 11 -4 11 -10z m-1620 -21 c-21 -5 -23 -7 -7 -14 27 -12 19 -75 -10 -75 -11
0 -13 7 -9 27 5 16 3 29 -4 33 -20 13 9 48 34 42 20 -6 20 -6 -4 -13z m360 11
c0 -5 -5 -10 -11 -10 -5 0 -7 5 -4 10 3 6 8 10 11 10 2 0 4 -4 4 -10z m1288
-47 c3 -27 0 -31 -17 -26 -13 3 -21 14 -21 27 0 48 33 46 38 -1z m-108 6 c0
-6 -4 -7 -10 -4 -5 3 -10 11 -10 16 0 6 5 7 10 4 6 -3 10 -11 10 -16z m-1476
-34 c5 0 11 -6 14 -12 2 -9 -7 -13 -27 -13 -19 0 -31 5 -31 13 0 19 11 28 24
19 6 -4 15 -7 20 -7z m241 -41 c-2 -27 -28 -50 -44 -39 -5 3 -12 1 -16 -5 -10
-16 -25 -12 -25 6 0 10 6 14 14 11 7 -3 26 8 42 24 15 16 28 29 29 29 0 0 0
-12 0 -26z m-95 -19 c0 -8 -7 -15 -15 -15 -26 0 -18 20 13 29 1 1 2 -6 2 -14z
m720 -125 c0 -5 -4 -10 -10 -10 -5 0 -10 5 -10 10 0 6 5 10 10 10 6 0 10 -4
10 -10z m-44 -20 c9 0 13 -4 10 -9 -10 -16 -45 -1 -38 17 4 10 7 12 10 4 2 -7
10 -12 18 -12z m-370 -127 c-10 -10 -19 5 -10 18 6 11 8 11 12 0 2 -7 1 -15
-2 -18z"/>
<path d="M2310 1350 c0 -5 5 -10 11 -10 5 0 7 5 4 10 -3 6 -8 10 -11 10 -2 0
-4 -4 -4 -10z"/>
<path d="M2432 977 c-9 -11 -6 -16 16 -26 88 -41 97 -47 94 -66 -3 -18 -2 -18
13 3 15 21 15 25 -2 60 -16 34 -22 37 -64 40 -30 2 -50 -2 -57 -11z"/>
<path d="M180 940 c0 -5 7 -10 15 -10 8 0 15 5 15 10 0 6 -7 10 -15 10 -8 0
-15 -4 -15 -10z"/>
<path d="M2346 929 c-10 -6 -35 -8 -57 -5 -52 8 -179 -13 -179 -30 0 -7 5 -16
10 -19 6 -3 10 -19 10 -36 l0 -29 68 0 c81 0 134 23 139 60 6 44 12 55 25 42
18 -18 28 -15 28 8 0 22 -15 25 -44 9z"/>
<path d="M150 900 c-5 -10 -6 -20 -3 -24 7 -6 43 22 43 34 0 14 -31 6 -40 -10z"/>
<path d="M157 814 c-3 -4 1 -13 9 -21 17 -18 29 -11 21 12 -7 16 -19 20 -30 9z"/>
<path d="M230 750 c0 -5 7 -10 16 -10 8 0 12 5 9 10 -3 6 -10 10 -16 10 -5 0
-9 -4 -9 -10z"/>
<path d="M550 176 c0 -2 7 -7 16 -10 8 -3 12 -2 9 4 -6 10 -25 14 -25 6z"/>
<path d="M678 143 c7 -3 16 -2 19 1 4 3 -2 6 -13 5 -11 0 -14 -3 -6 -6z"/>
</g>
</svg>
